<?xml version="1.0" encoding="UTF-8"?>
<svg width="498px" height="68px" viewBox="0 0 498 68" version="1.1" xmlns="http://www.w3.org/2000/svg" xmlns:xlink="http://www.w3.org/1999/xlink">
    <!-- Generator: Sketch 48.2 (47327) - http://www.bohemiancoding.com/sketch -->
    <title>Branding/Logo</title>
    <desc>Created with Sketch.</desc>
    <defs>
        <polygon id="path-1" points="0.559541278 0.4012 415.826416 0.4012 415.826416 33.5988 0.559541278 33.5988"></polygon>
    </defs>
    <g id="BitcoinCalculator-Desktop" stroke="none" stroke-width="1" fill="none" fill-rule="evenodd" transform="translate(-98.000000, -40.000000)">
        <g id="Branding/Logo" transform="translate(98.000000, 40.000000)">
            <g id="Page-1">
                <g id="Group-3" transform="translate(82.093985, 17.000000)">
                    <mask id="mask-2" fill="white">
                        <use xlink:href="#path-1"></use>
                    </mask>
                    <g id="Clip-2"></g>
                    <path d="M275.952023,0.4012 L270.174305,33.1273333 L276.679546,33.1273333 L282.457264,0.4012 L275.952023,0.4012 Z M260.952037,26.7874667 C259.838956,27.7729 258.598487,28.3299333 257.271395,28.3299333 C254.917846,28.3299333 253.376744,26.6169 253.376744,23.7892333 C253.376744,22.1187 253.933284,20.2339667 255.003337,18.9487667 C255.901841,17.8783333 257.228933,16.9784667 259.239953,16.9784667 C260.481553,16.9784667 261.722022,17.3213 262.535601,17.7066333 L260.952037,26.7874667 Z M250.723126,15.0512333 C248.155566,17.578 246.829041,21.1338333 246.829041,24.5179667 C246.829041,29.9574 250.295671,33.5988 254.960308,33.5988 C257.057385,33.5988 258.768903,32.8706333 260.139023,31.6715667 L260.22508,31.7140667 L259.968041,33.1273333 L266.344196,33.1273333 L269.682874,14.0658 C266.901303,12.7381 263.348615,11.5809667 259.838956,11.5809667 C256.15888,11.5809667 252.991751,12.8236667 250.723126,15.0512333 Z M202.114428,11.5809667 C200.274391,11.5809667 197.920275,12.138 195.652216,14.0227333 L195.566725,13.9802333 L195.908689,12.0524333 L189.531402,12.0524333 L185.808298,33.1273333 L192.313539,33.1273333 L194.796174,18.9487667 C196.079671,17.9208333 197.791756,17.1926667 199.332858,17.1926667 C201.172895,17.1926667 201.94288,18.2636667 201.94288,19.6775 C201.94288,20.1484 201.857389,20.7479333 201.771898,21.2188333 L199.674822,33.1273333 L206.180062,33.1273333 L208.36263,20.7054333 C208.534178,19.6775 208.619669,18.8632 208.619669,18.1350333 C208.619669,14.2369333 206.180062,11.5809667 202.114428,11.5809667 Z M228.006305,19.2060333 C228.006305,16.2078 229.161849,12.9517333 231.344983,10.7672333 C233.228049,8.88306667 235.75258,7.769 238.834219,7.769 C241.659384,7.769 244.354898,8.71136667 247.051544,10.2963333 L248.207087,3.6992 C245.467979,2.45763333 242.557889,1.64333333 239.13372,1.64333333 C234.169582,1.64333333 229.846343,3.35693333 226.594289,6.56993333 C223.042167,10.0821333 221.159101,15.0512333 221.159101,19.8055667 C221.159101,28.6297 227.706804,33.5988 236.22363,33.5988 C238.962738,33.5988 241.744309,33.0848333 243.969905,32.2280333 L245.168477,25.4172667 C242.771899,26.7449667 239.776318,27.4731333 237.165163,27.4731333 C231.558993,27.4731333 228.006305,24.5179667 228.006305,19.2060333 Z M285.174858,14.5797667 C282.136248,17.1501667 280.809156,20.9196333 280.809156,24.1320667 C280.809156,30.6430667 286.330401,33.5557333 291.722561,33.5557333 C293.691684,33.5557333 296.002771,33.1704 297.543307,32.4847333 L298.61336,26.4877 C296.601774,27.5162 294.333716,28.0726667 292.536141,28.0726667 C289.111972,28.0726667 287.357992,26.1023667 287.357992,23.4039 C287.357992,21.6903 288.041919,19.8480667 289.411474,18.5634333 C290.524555,17.5349333 291.936571,17.0640333 293.520136,17.0640333 C295.360174,17.0640333 297.414788,17.7066333 299.511865,19.0774 L300.539455,13.1659333 C298.527869,12.1810667 296.173753,11.5809667 293.777175,11.5809667 C290.610046,11.5809667 287.443483,12.6519667 285.174858,14.5797667 Z M349.285165,26.7874667 C348.17265,27.7729 346.931049,28.3299333 345.604523,28.3299333 C343.250407,28.3299333 341.709871,26.6169 341.709871,23.7892333 C341.709871,22.1187 342.266412,20.2339667 343.336465,18.9487667 C344.234969,17.8783333 345.562061,16.9784667 347.57308,16.9784667 C348.814115,16.9784667 350.055716,17.3213 350.868729,17.7066333 L349.285165,26.7874667 Z M339.05682,15.0512333 C336.488694,17.578 335.162168,21.1338333 335.162168,24.5179667 C335.162168,29.9574 338.628799,33.5988 343.293436,33.5988 C345.390513,33.5988 347.102597,32.8706333 348.472151,31.6715667 L348.557642,31.7140667 L348.301169,33.1273333 L354.67789,33.1273333 L358.015435,14.0658 C355.233865,12.7381 351.682309,11.5809667 348.17265,11.5809667 C344.492574,11.5809667 341.324879,12.8236667 339.05682,15.0512333 Z M414.113935,11.7951667 C411.760952,11.7951667 409.663309,13.1234333 408.08031,14.9226 L407.994819,14.8795333 L408.465303,12.0524333 L402.088016,12.0524333 L398.364912,33.1273333 L404.870153,33.1273333 L407.095749,20.3626 C408.465303,18.9487667 410.733928,17.8783333 413.044449,17.8783333 C413.643452,17.8783333 414.285483,18.0064 414.885053,18.1781 L415.826586,12.0955 C415.270045,11.8813 414.628013,11.7951667 414.113935,11.7951667 Z M389.540092,26.4021333 C388.68405,27.3875667 387.400553,28.0301667 385.774525,28.0301667 C382.94936,28.0301667 381.451853,26.0593 381.451853,23.4039 C381.451853,21.7333667 382.050856,19.9772667 383.07788,18.7776333 C383.933922,17.7922 385.217985,17.1501667 386.844012,17.1501667 C389.668611,17.1501667 391.166685,19.1204667 391.166685,21.7764333 C391.166685,23.4469667 390.567116,25.2030667 389.540092,26.4021333 Z M387.187108,11.5809667 C383.676883,11.5809667 380.638273,12.8661667 378.455705,15.0937333 C376.145184,17.4499333 374.946612,20.7479333 374.946612,23.8323 C374.946612,29.9149 379.525192,33.5988 385.431995,33.5988 C388.941089,33.5988 391.980265,32.3130333 394.162266,30.0860333 C396.473919,27.7304 397.671925,24.4318333 397.671925,21.3480333 C397.671925,15.2648667 393.092213,11.5809667 387.187108,11.5809667 Z M330.245022,0.4012 L324.467304,33.1273333 L330.97311,33.1273333 L336.750262,0.4012 L330.245022,0.4012 Z M315.290895,26.1454333 C313.964935,27.4300667 312.423833,28.0301667 310.969354,28.0301667 C309.171779,28.0301667 308.187783,27.0878 308.187783,25.5453333 C308.187783,25.2030667 308.230246,24.5604667 308.358199,23.8753667 L310.455276,12.0524333 L303.950035,12.0524333 L301.768034,24.3887667 C301.596486,25.3742 301.510995,26.3596333 301.510995,27.0878 C301.510995,30.9859 304.164046,33.5988 308.058698,33.5988 C310.284294,33.5988 312.63841,32.742 314.435419,31.1139667 L314.52091,31.1570333 L314.178946,33.1273333 L320.555101,33.1273333 L324.278771,12.0524333 L317.77353,12.0524333 L315.290895,26.1454333 Z M369.155872,17.4499333 L374.677117,17.4499333 L375.618084,12.0524333 L370.097405,12.0524333 L371.20992,5.84176667 L364.619189,6.2271 L363.592165,12.0524333 L360.168562,12.0524333 L359.227029,17.4499333 L362.651198,17.4499333 L361.409597,24.4743333 C361.238615,25.5028333 361.110095,26.4877 361.110095,27.2158667 C361.110095,31.7996333 364.705246,33.5988 368.42835,33.5988 C369.711847,33.5988 370.996476,33.3846 371.938009,33.0423333 L372.922004,27.4300667 C372.066528,27.8584667 371.038938,28.1157333 370.139868,28.1157333 C368.556303,28.1157333 367.786318,27.302 367.786318,25.8451 C367.786318,25.4172667 367.871809,24.8177333 367.957866,24.3462667 L369.155872,17.4499333 Z M175.421428,33.1273333 L181.926668,33.1273333 L185.649772,12.0524333 L179.144532,12.0524333 L175.421428,33.1273333 Z M136.30053,14.5797667 C133.26192,17.1501667 131.934828,20.9196333 131.934828,24.1320667 C131.934828,30.6430667 137.456074,33.5557333 142.848233,33.5557333 C144.81679,33.5557333 147.127877,33.1704 148.66898,32.4847333 L149.738466,26.4877 C147.727447,27.5162 145.459388,28.0726667 143.661813,28.0726667 C140.237644,28.0726667 138.482532,26.1023667 138.482532,23.4039 C138.482532,21.6903 139.167592,19.8480667 140.53658,18.5634333 C141.649661,17.5349333 143.062244,17.0640333 144.645808,17.0640333 C146.485846,17.0640333 148.54046,17.7066333 150.636971,19.0774 L151.664561,13.1659333 C149.652975,12.1810667 147.299425,11.5809667 144.902281,11.5809667 C141.735718,11.5809667 138.568589,12.6519667 136.30053,14.5797667 Z M93.7679195,14.9651 L89.8732676,14.9651 L91.113736,7.9407 L94.0243924,7.9407 C95.7795052,7.9407 96.8065292,8.1974 97.5765142,8.71136667 C98.3900939,9.26783333 98.7756526,10.0396333 98.7756526,11.1956333 C98.7756526,14.2369333 96.0365443,14.9651 93.7679195,14.9651 Z M96.2069601,26.1885 C95.3090217,26.9161 94.1959405,27.302 91.6283804,27.302 L87.6901338,27.302 L89.0596879,19.6344333 L92.6548383,19.6344333 C95.5654947,19.6344333 97.5765142,20.6623667 97.5765142,23.1472 C97.5765142,24.4318333 97.0630022,25.4597667 96.2069601,26.1885 Z M105.622291,9.39646667 C105.622291,6.78413333 104.381822,4.89883333 102.412699,3.6992 C100.572662,2.5857 98.0905924,2.1148 94.6239616,2.1148 L85.3365841,2.1148 L79.8583676,33.1273333 L90.3012886,33.1273333 C94.7943774,33.1273333 97.7905247,32.3130333 100.016121,30.8997667 C102.798258,29.1006 104.424285,26.1885 104.424285,23.1035667 C104.424285,20.0628333 102.798258,17.8783333 99.845139,16.6787 L99.845139,16.5931333 C103.397261,15.4790667 105.622291,12.8236667 105.622291,9.39646667 Z M113.583143,9.09726667 C115.76571,9.09726667 117.563286,7.42616667 117.563286,5.19916667 C117.563286,3.2708 116.065778,1.64333333 114.01173,1.64333333 C111.828596,1.64333333 110.031021,3.31443333 110.031021,5.54143333 C110.031021,7.46923333 111.529095,9.09726667 113.583143,9.09726667 Z M126.182588,17.4499333 L131.703833,17.4499333 L132.645366,12.0524333 L127.124121,12.0524333 L128.237202,5.84176667 L121.646471,6.2271 L120.619447,12.0524333 L109.345961,12.0524333 L105.622857,33.1273333 L112.128664,33.1273333 L114.897779,17.4499333 L119.677913,17.4499333 L118.436313,24.4743333 C118.265331,25.5028333 118.137377,26.4877 118.137377,27.2158667 C118.137377,31.7996333 121.731962,33.5988 125.455632,33.5988 C126.739128,33.5988 128.023192,33.3846 128.964725,33.0423333 L129.94872,27.4300667 C129.092678,27.8584667 128.065654,28.1157333 127.16715,28.1157333 C125.583585,28.1157333 124.8136,27.302 124.8136,25.8451 C124.8136,25.4172667 124.898525,24.8177333 124.984582,24.3462667 L126.182588,17.4499333 Z M183.381713,9.09726667 C185.564281,9.09726667 187.36129,7.42616667 187.36129,5.19916667 C187.36129,3.2708 185.863783,1.64333333 183.809735,1.64333333 C181.626601,1.64333333 179.829592,3.31443333 179.829592,5.54143333 C179.829592,7.46923333 181.327099,9.09726667 183.381713,9.09726667 Z M166.596607,26.4021333 C165.740565,27.3875667 164.455936,28.0301667 162.829909,28.0301667 C160.00531,28.0301667 158.507802,26.0593 158.507802,23.4039 C158.507802,21.7333667 159.106805,19.9772667 160.134395,18.7776333 C160.989871,17.7922 162.273935,17.1501667 163.900528,17.1501667 C166.724561,17.1501667 168.222635,19.1204667 168.222635,21.7764333 C168.222635,23.4469667 167.623632,25.2030667 166.596607,26.4021333 Z M164.242492,11.5809667 C160.732832,11.5809667 157.694789,12.8661667 155.512221,15.0937333 C153.200568,17.4499333 152.002562,20.7479333 152.002562,23.8323 C152.002562,29.9149 156.581707,33.5988 162.487945,33.5988 C165.997038,33.5988 169.035648,32.3130333 171.218782,30.0860333 C173.529869,27.7304 174.727875,24.4318333 174.727875,21.3480333 C174.727875,15.2648667 170.148163,11.5809667 164.242492,11.5809667 Z M54.8304593,20.1914667 C55.6865014,18.0494667 57.3130947,16.5500667 59.5386909,16.5500667 C61.7212586,16.5500667 63.1768698,17.9208333 63.2193323,20.1914667 L54.8304593,20.1914667 Z M59.8381924,11.5809667 C56.6710631,11.5809667 53.7609729,12.7811667 51.5353766,15.0081667 C49.1387984,17.4068667 47.8553014,20.8340667 47.8553014,24.0465 C47.8553014,30.5144333 52.9904217,33.5988 58.7256774,33.5988 C61.0797932,33.5988 63.7328443,33.0848333 65.6159105,32.2705333 L66.6859631,26.6169 C64.8028969,27.6017667 61.9777315,28.5441333 59.5817195,28.5441333 C56.7140917,28.5441333 54.5739864,27.2158667 54.2744849,24.3037667 L68.6114917,24.3037667 C68.9545879,23.1035667 69.1250037,21.5622333 69.1250037,20.4056667 C69.1250037,14.6228333 64.8453593,11.5809667 59.8381924,11.5809667 Z M39.6979902,11.5809667 C37.8573864,11.5809667 35.4613744,12.138 33.3207029,13.9802333 L33.235212,13.9371667 L35.3662586,2.1148 L28.8672458,2.1148 L23.3918601,33.1273333 L29.8971007,33.1273333 L32.3791698,18.9487667 C33.663233,17.9208333 35.3753172,17.1926667 36.9158533,17.1926667 C38.7564571,17.1926667 39.526442,18.2636667 39.526442,19.6775 C39.526442,20.1484 39.4409511,20.7479333 39.3548939,21.2188333 L37.2583834,33.1273333 L43.763624,33.1273333 L45.9461917,20.7054333 C46.1177398,19.6775 46.2032308,18.8632 46.2032308,18.1350333 C46.2032308,14.2369333 43.763624,11.5809667 39.6979902,11.5809667 Z M25.9475308,2.1148 L1.63016008,2.1148 L0.559541278,8.06876667 L9.31642173,8.06876667 L4.90825782,33.1273333 L11.7129999,33.1273333 L16.1211638,8.06876667 L24.8774781,8.06876667 L25.9475308,2.1148 Z" id="Fill-1" fill="#FFFFFF" mask="url(#mask-2)"></path>
                </g>
                <path d="M67.9398496,34 C67.9398496,52.7776333 52.7309481,68 33.9699248,68 C15.2089015,68 0,52.7776333 0,34 C0,15.2223667 15.2089015,0 33.9699248,0 C52.7309481,0 67.9398496,15.2223667 67.9398496,34" id="Fill-4" fill="#04BC0A"></path>
                <path d="M56.8653711,23.8 L52.97355,23.8 C52.7963402,23.8 52.6536665,23.6566333 52.6536665,23.4798333 L52.6536665,19.8333333 C52.6536665,16.0780333 49.6110936,13.0333333 45.8596816,13.0333333 L42.4626891,13.0333333 C38.7107109,13.0333333 35.6687041,16.0780333 35.6687041,19.8333333 L35.6687041,23.4798333 C35.6687041,23.6566333 35.5254643,23.8 35.3482545,23.8 L32.5915951,23.8 C32.4143853,23.8 32.2717117,23.6566333 32.2717117,23.4798333 L32.2717117,19.8333333 C32.2717117,16.0780333 29.2291387,13.0333333 25.4777267,13.0333333 L17.5514109,13.0333333 C16.3007515,13.0333333 15.2867492,14.0482333 15.2867492,15.3 L15.2867492,23.4798333 C15.2867492,23.6566333 15.1435094,23.8 14.9662996,23.8 L11.0739124,23.8 C10.8995335,23.8 10.7574259,23.9422333 10.7574259,24.1173333 L10.7574259,29.1493333 C10.7574259,29.3244333 10.8995335,29.4666667 11.0739124,29.4666667 L14.9662996,29.4666667 C15.1435094,29.4666667 15.2867492,29.6100333 15.2867492,29.7868333 L15.2867492,38.2131667 C15.2867492,38.3899667 15.1435094,38.5333333 14.9662996,38.5333333 L11.0739124,38.5333333 C10.8995335,38.5333333 10.7574259,38.6755667 10.7574259,38.8506667 L10.7574259,43.8826667 C10.7574259,44.0577667 10.8995335,44.2 11.0739124,44.2 L14.9662996,44.2 C15.1435094,44.2 15.2867492,44.3433667 15.2867492,44.5201667 L15.2867492,52.7 C15.2867492,53.9517667 16.3007515,54.9666667 17.5514109,54.9666667 L25.4777267,54.9666667 C29.2291387,54.9666667 32.2717117,51.9219667 32.2717117,48.1666667 L32.2717117,46.2173333 C32.2717117,46.0422333 32.1296041,45.9 31.9540929,45.9 L28.059441,45.9 C27.8844959,45.9 27.7423883,46.0422333 27.7423883,46.2173333 L27.7423883,48.1666667 C27.7423883,49.4184333 26.7283861,50.4333333 25.4777267,50.4333333 L20.2605124,50.4333333 C20.0147966,50.4333333 19.8160726,50.2338667 19.8160726,49.9885 L19.8160726,36.7115 C19.8160726,36.4661333 20.0147966,36.2666667 20.2605124,36.2666667 L25.4777267,36.2666667 C26.7266876,36.2666667 27.7423883,37.2838333 27.7423883,38.5333333 L21.8310553,38.5333333 C21.6566763,38.5333333 21.5145688,38.6755667 21.5145688,38.8506667 L21.5145688,43.8826667 C21.5145688,44.0577667 21.6566763,44.2 21.8310553,44.2 L46.1082282,44.2 C46.2837395,44.2 46.425847,44.0577667 46.425847,43.8826667 L46.425847,38.8506667 C46.425847,38.6755667 46.2837395,38.5333333 46.1082282,38.5333333 L40.5179109,38.5333333 C40.3407011,38.5333333 40.1980274,38.3899667 40.1980274,38.2131667 L40.1980274,31.484 C40.1980274,31.3089 40.0559199,31.1666667 39.8804086,31.1666667 L35.9857568,31.1666667 C35.8108117,31.1666667 35.6687041,31.3089 35.6687041,31.484 L35.6687041,38.2131667 C35.6687041,38.3899667 35.5254643,38.5333333 35.3482545,38.5333333 L32.2717117,38.5333333 C32.2717117,36.7693 31.5962763,35.1594 30.4916876,33.949 C31.0980508,33.2650333 31.5753282,32.4598 31.8821898,31.5797667 C31.9529605,31.3774667 31.793868,31.1666667 31.5792914,31.1666667 L26.8823831,31.1666667 C26.4894643,31.5123333 26.0002974,31.7333333 25.4777267,31.7333333 L20.2605124,31.7333333 C20.0147966,31.7333333 19.8160726,31.5338667 19.8160726,31.2885 L19.8160726,18.0115 C19.8160726,17.7661333 20.0147966,17.5666667 20.2605124,17.5666667 L25.4777267,17.5666667 C26.7283861,17.5666667 27.7423883,18.5815667 27.7423883,19.8333333 L27.7423883,23.4798333 C27.7423883,23.6566333 27.5991485,23.8 27.4219387,23.8 L21.8310553,23.8 C21.6566763,23.8 21.5145688,23.9422333 21.5145688,24.1173333 L21.5145688,29.1493333 C21.5145688,29.3244333 21.6566763,29.4666667 21.8310553,29.4666667 L46.1082282,29.4666667 C46.2837395,29.4666667 46.425847,29.3244333 46.425847,29.1493333 L46.425847,24.1173333 C46.425847,23.9422333 46.2837395,23.8 46.1082282,23.8 L40.5179109,23.8 C40.3407011,23.8 40.1980274,23.6566333 40.1980274,23.4798333 L40.1980274,19.8333333 C40.1980274,18.5815667 41.2120297,17.5666667 42.4626891,17.5666667 L45.8596816,17.5666667 C47.110341,17.5666667 48.1243432,18.5815667 48.1243432,19.8333333 L48.1243432,28.8076333 C48.1243432,29.9494667 48.9271658,30.9819333 50.0566658,31.1428667 C51.2297605,31.3100333 52.2516891,30.5750667 52.5551538,29.5329667 C52.5664771,29.4938667 52.6010132,29.4666667 52.6417771,29.4666667 L56.8653711,29.4666667 C57.0408823,29.4666667 57.1829898,29.3244333 57.1829898,29.1493333 L57.1829898,24.1173333 C57.1829898,23.9422333 57.0408823,23.8 56.8653711,23.8 M56.8653711,38.5333333 L52.6417771,38.5333333 C52.6010132,38.5333333 52.5664771,38.5061333 52.5551538,38.4670333 C52.2516891,37.4249333 51.2297605,36.6899667 50.0566658,36.8571333 C48.9271658,37.0180667 48.1243432,38.0477 48.1243432,39.1889667 L48.1243432,48.1700667 C48.1243432,49.4218333 47.110341,50.4333333 45.8596816,50.4333333 L42.4626891,50.4333333 C41.2120297,50.4333333 40.1980274,49.4184333 40.1980274,48.1666667 L40.1980274,46.2173333 C40.1980274,46.0422333 40.0559199,45.9 39.8804086,45.9 L35.9857568,45.9 C35.8108117,45.9 35.6687041,46.0422333 35.6687041,46.2173333 L35.6687041,48.1666667 C35.6687041,51.9219667 38.7107109,54.9666667 42.4626891,54.9666667 L45.8596816,54.9666667 C49.6110936,54.9666667 52.6536665,51.9219667 52.6536665,48.1666667 L52.6536665,44.5201667 C52.6536665,44.3433667 52.7963402,44.2 52.97355,44.2 L56.8653711,44.2 C57.0408823,44.2 57.1829898,44.0577667 57.1829898,43.8826667 L57.1829898,38.8506667 C57.1829898,38.6755667 57.0408823,38.5333333 56.8653711,38.5333333" id="Fill-6" fill="#FFFFFF"></path>
            </g>
        </g>
    </g>
</svg>